PathFileType	4	(X/Y/Z)	C:\Users\86182\Documents\cortex\Trimmed_M1_L13.trc
DataRate	CameraRate	NumFrames	NumMarkers	Units	OrigDataRate	OrigDataStartFrame	OrigNumFrames
100.00	100.00	       158	2	mm	100.00	1	       901
Frame#	Time	gripper			box			
		X1	Y1	Z1	X2	Y2	Z2	

1	0.000	200.75769	195.30315	193.06969	203.67796	194.08121	58.06387	
2	0.010	200.75586	195.30122	193.06464	203.72543	194.09424	58.02584	
3	0.020	200.74966	195.29419	193.05524	203.69730	194.08794	58.04679	
4	0.030	200.79660	195.27429	193.04942	203.68626	194.10193	58.06376	
5	0.040	200.77034	195.28830	193.05310	203.71820	194.07294	58.02652	
6	0.050	200.79660	195.27429	193.04942	203.68629	194.10739	58.05767	
7	0.060	200.76645	195.29341	193.05922	203.67844	194.08723	58.05261	
8	0.070	200.77765	195.28177	193.04729	203.70859	194.09465	58.05174	
9	0.080	200.75099	195.29756	193.05391	203.69843	194.09779	58.04873	
10	0.090	200.78799	195.29272	193.07591	203.70702	194.06796	58.03760	
11	0.100	200.74727	195.31052	193.07448	203.66589	194.09100	58.06791	
12	0.110	200.76810	195.29608	193.06546	203.71681	194.06865	58.02758	
13	0.120	200.76118	195.29314	193.05432	203.71744	194.09482	58.03813	
14	0.130	200.77130	195.28909	193.05537	203.73993	194.08409	58.01659	
15	0.140	200.76884	195.29128	193.05731	203.69699	194.12341	58.05799	
16	0.150	200.76645	195.29341	193.05922	203.69267	194.08403	58.04928	
17	0.160	200.73488	195.31664	193.07533	203.69852	194.10536	58.04948	
18	0.170	200.75682	195.30200	193.06686	203.67638	194.10710	58.06291	
19	0.180	200.77779	195.28850	193.06140	203.70691	194.07727	58.03611	
20	0.190	200.76884	195.29128	193.05731	203.64226	194.09943	58.08378	
21	0.200	200.80121	195.27646	193.05724	203.72801	194.09196	58.02709	
22	0.210	200.75732	195.29825	193.06046	203.69955	194.09828	58.05217	
23	0.220	200.75395	195.29961	193.06010	203.72273	194.10846	58.03843	
24	0.230	200.77371	195.28694	193.05344	203.74689	194.08702	58.01434	
25	0.240	200.76628	195.28612	193.04575	203.69997	194.09665	58.04473	
26	0.250	200.77861	195.28258	193.04956	203.73416	194.07962	58.02000	
27	0.260	200.76358	195.29100	193.05241	203.74112	194.09747	58.02794	
28	0.270	200.76645	195.29341	193.05922	203.68906	194.10501	58.06354	
29	0.280	200.76163	195.29771	193.06306	203.66296	194.10112	58.06716	
30	0.290	200.79980	195.27907	193.06082	203.66872	194.09586	58.07016	
31	0.300	200.78841	195.27966	193.05238	203.70262	194.08443	58.03929	
32	0.310	200.77556	195.29491	193.06952	203.71529	194.07011	58.02254	
33	0.320	200.76904	195.29686	193.06769	203.71776	194.10065	58.03630	
34	0.330	200.78285	195.29408	193.07410	203.70824	194.06880	58.02724	
35	0.340	200.77754	195.28125	193.05307	203.73146	194.05824	58.02315	
36	0.350	200.75443	195.30414	193.06877	203.73930	194.07820	58.01903	
37	0.360	200.77344	195.27040	193.04379	203.69070	194.09637	58.04963	
38	0.370	200.78094	195.27260	193.05055	203.68637	194.09073	58.04909	
39	0.380	200.72815	195.29797	193.05989	203.68839	194.10281	58.05314	
40	0.390	200.79651	195.26869	193.05428	203.66783	194.10297	58.07174	
41	0.400	200.76442	195.28654	193.05359	203.72025	194.10167	58.04264	
42	0.410	200.74200	195.29004	193.04996	203.71234	194.08878	58.04288	
43	0.420	200.78517	195.26572	193.03972	203.71117	194.08833	58.03947	
44	0.430	200.77617	195.28476	193.05151	203.73524	194.08395	58.01907	
45	0.440	200.77861	195.28258	193.04956	203.76013	194.05275	57.99339	
46	0.450	200.77956	195.26744	193.03650	203.67963	194.08777	58.05124	
47	0.460	200.77975	195.26984	193.04971	203.67378	194.07945	58.05899	
48	0.470	200.79872	195.27061	193.04967	203.68526	194.07704	58.05153	
49	0.480	200.78212	195.26965	193.04089	203.72180	194.07071	58.02721	
50	0.490	200.79672	195.27245	193.05647	203.68819	194.10063	58.05066	
51	0.500	200.80635	195.27139	193.05223	203.72169	194.06729	58.01791	
52	0.510	200.77171	195.28708	193.06235	203.71387	194.08763	58.03892	
53	0.520	200.78406	195.28494	193.06525	203.68120	194.08781	58.05041	
54	0.530	200.81169	195.28531	193.08214	203.68871	194.09123	58.05186	
55	0.540	200.78328	195.28937	193.07268	203.70757	194.07770	58.03092	
56	0.550	200.78848	195.29097	193.07310	203.68813	194.10277	58.06191	
57	0.560	200.80775	195.27519	193.06207	203.70540	194.07840	58.04003	
58	0.570	200.83675	195.26511	193.06612	203.68289	194.08717	58.05926	
59	0.580	200.78276	195.28848	193.06381	203.73524	194.08395	58.01907	
60	0.590	200.76897	195.29947	193.07588	203.73129	194.08344	58.02606	
61	0.600	200.77034	195.28984	193.06078	203.73473	194.08669	58.01184	
62	0.610	200.78360	195.28964	193.06664	203.67509	194.06668	58.05043	
63	0.620	200.78502	195.28267	193.07057	203.65483	194.08156	58.05276	
64	0.630	200.78047	195.29620	193.07599	203.68456	194.04405	58.03620	
65	0.640	200.76181	195.30330	193.07341	203.69115	194.05606	58.03251	
66	0.650	200.76337	195.30002	193.06871	203.70714	194.09218	58.04617	
67	0.660	200.76291	195.30988	193.08633	203.72112	194.09607	58.03041	
68	0.670	200.77762	195.28690	193.06345	203.65804	194.10655	58.07260	
69	0.680	200.78154	195.28836	193.07117	203.68770	194.08487	58.04160	
70	0.690	200.79816	195.28802	193.07581	203.69188	194.10443	58.05820	
71	0.700	200.77155	195.28966	193.07042	203.72560	194.09464	58.02978	
72	0.710	200.79488	195.30548	193.10497	203.66505	194.11372	58.06113	
73	0.720	200.76509	195.30229	193.07430	203.74226	194.05209	58.01160	
74	0.730	200.73616	195.30603	193.07082	203.66423	194.09283	58.06220	
75	0.740	200.74753	195.31599	193.08469	203.68372	194.10654	58.05990	
76	0.750	200.74965	195.30258	193.08276	203.68829	194.07481	58.04369	
77	0.760	200.75941	195.30640	193.08319	203.65054	194.10094	58.08257	
78	0.770	200.76460	195.31210	193.09181	203.72313	194.08789	58.03403	
79	0.780	200.73109	195.30481	193.06436	203.68019	194.08788	58.05982	
80	0.790	200.75349	195.30263	193.07207	203.65234	194.06067	58.06839	
81	0.800	200.76610	195.30891	193.08723	203.69789	194.09192	58.05104	
82	0.810	200.74583	195.29924	193.06129	203.66141	194.10742	58.06996	
83	0.820	200.73677	195.31613	193.08119	203.70314	194.09605	58.05289	
84	0.830	200.73766	195.29076	193.05641	203.64752	194.08849	58.07533	
85	0.840	200.72835	195.32738	193.08951	203.63797	194.09367	58.09689	
86	0.850	200.74139	195.31021	193.07933	203.71631	194.09438	58.03469	
87	0.860	200.74823	195.29710	193.05937	203.67165	194.09160	58.06890	
88	0.870	200.73700	195.32031	193.08731	203.66257	194.09135	58.07368	
89	0.880	200.74013	195.31688	193.08012	203.66399	194.09773	58.07490	
90	0.890	200.74171	195.30042	193.06169	203.66849	194.09401	58.07682	
91	0.900	200.74013	195.31688	193.08012	203.63197	194.10579	58.08637	
92	0.910	200.73627	195.30775	193.06886	203.67723	194.10556	58.06419	
93	0.920	200.74965	195.30840	193.07259	203.66434	194.10829	58.06754	
94	0.930	200.73497	195.31393	193.07565	203.63908	194.09222	58.08435	
95	0.940	200.74141	195.31068	193.07338	203.72833	194.09393	58.02921	
96	0.950	200.73543	195.32108	193.08389	203.69662	194.11212	58.05650	
97	0.960	200.73112	195.32164	193.08134	203.64891	194.10629	58.07742	
98	0.970	200.72052	195.32272	193.08130	203.70410	194.10791	58.04827	
99	0.980	200.74486	195.31265	193.07635	203.68718	194.10040	58.06501	
100	0.990	200.73543	195.32108	193.08389	203.71391	194.10461	58.04251	
101	1.000	200.74251	195.31476	193.07826	203.69264	194.10477	58.05286	
102	1.010	200.73866	195.31178	193.07275	203.67535	194.10474	58.06605	
103	1.020	200.74965	195.30840	193.07259	203.66107	194.10201	58.07617	
104	1.030	200.75769	195.30315	193.06969	203.68542	194.10347	58.06247	
105	1.040	200.73543	195.32108	193.08389	203.65855	194.09912	58.07604	
106	1.050	200.77386	195.29259	193.06389	203.66989	194.10612	58.06720	
107	1.060	200.74866	195.29935	193.05524	203.67165	194.09160	58.06890	
108	1.070	200.76884	195.29128	193.05731	203.71562	194.10153	58.04509	
109	1.080	200.76645	195.29341	193.05922	203.69843	194.09779	58.04873	
110	1.090	200.75490	195.30042	193.06238	203.69940	194.10777	58.05074	
111	1.100	200.72920	195.30324	193.05991	203.68982	194.11528	58.04715	
112	1.110	200.75443	195.30414	193.06877	203.70500	194.08936	58.04588	
113	1.120	200.75497	195.28279	193.04225	203.66403	194.11292	58.06256	
114	1.130	200.74521	195.31807	193.08655	203.71799	194.09128	58.03729	
115	1.140	200.75443	195.30414	193.06877	203.70285	194.10164	58.05588	
116	1.150	200.74080	195.31378	193.07677	203.71529	194.08257	58.03936	
117	1.160	200.79086	195.28320	193.06090	203.68758	194.09872	58.05762	
118	1.170	200.75659	195.30304	193.06859	203.71387	194.09706	58.03739	
119	1.180	200.73198	195.31911	193.08092	203.68860	194.09355	58.04933	
120	1.190	200.73775	195.31900	193.08203	203.65437	194.10489	58.07627	
121	1.200	200.75511	195.30103	193.06537	203.70694	194.08078	58.04548	
122	1.210	200.74571	195.30191	193.06096	203.65854	194.09526	58.08035	
123	1.220	200.72641	195.32585	193.08508	203.68292	194.11920	58.06932	
124	1.230	200.74794	195.30743	193.07109	203.64522	194.10077	58.08540	
125	1.240	200.76413	195.28719	193.04590	203.69478	194.10764	58.05319	
126	1.250	200.75752	195.29889	193.06346	203.68457	194.10500	58.06119	
127	1.260	200.74771	195.29855	193.05298	203.70911	194.10057	58.04939	
128	1.270	200.77765	195.28177	193.04729	203.66719	194.10683	58.06776	
129	1.280	200.76645	195.29341	193.05922	203.73720	194.09775	58.02507	
130	1.290	200.74442	195.28790	193.04807	203.66225	194.10077	58.07238	
131	1.300	200.75682	195.30200	193.06686	203.70746	194.10176	58.05346	
132	1.310	200.75923	195.29985	193.06496	203.72675	194.09509	58.03320	
133	1.320	200.77663	195.27434	193.03969	203.73763	194.10732	58.03232	
134	1.330	200.75682	195.30200	193.06686	203.70410	194.10791	58.04827	
135	1.340	200.74823	195.29710	193.05937	203.68542	194.10347	58.06247	
136	1.350	200.74965	195.30840	193.07259	203.66893	194.10376	58.07031	
137	1.360	200.71581	195.31337	193.07077	203.71198	194.09622	58.03927	
138	1.370	200.74486	195.31265	193.07635	203.68472	194.08800	58.05743	
139	1.380	200.75578	195.29788	193.06198	203.69849	194.06812	58.03724	
140	1.390	200.77950	195.28947	193.06290	203.66380	194.08818	58.06760	
141	1.400	200.74185	195.30676	193.08154	203.65294	194.06459	58.07258	
142	1.410	200.69653	195.32341	193.09918	203.69048	194.07758	58.04392	
143	1.420	200.65825	195.31726	193.12180	203.63892	194.10367	58.08529	
144	1.430	200.63583	195.32214	193.13123	203.64337	194.07901	58.07895	
145	1.440	200.62206	195.30667	193.15868	203.63228	194.05528	58.08876	
146	1.450	200.64127	195.28719	193.18553	203.60327	194.08746	58.12100	
147	1.460	200.65697	195.26846	193.21364	203.61317	194.10065	58.10140	
148	1.470	200.61870	195.25734	193.24579	203.56604	194.11513	58.12714	
149	1.480	200.66003	195.24881	193.28551	203.57446	194.09657	58.12511	
150	1.490	200.61980	195.17839	193.33669	203.59435	194.09029	58.12228	
151	1.500	200.61208	195.17119	193.33636	203.61322	194.07285	58.10555	
152	1.510	200.58914	195.15579	193.50150	203.62410	194.08037	58.08259	
153	1.520	200.50020	195.09973	193.66467	203.50270	194.02641	57.98899	
154	1.530	200.50993	195.15154	193.75240	203.45950	194.07101	57.99524	
155	1.540	200.45761	195.16560	194.01140	203.44621	194.07883	58.06112	
156	1.550	200.58200	195.16200	194.28639	203.43910	194.09950	58.17220	
157	1.560	200.40631	195.08734	194.60356	203.38136	194.08206	58.23697	
158	1.570	200.51112	195.19017	194.94905	203.20079	194.09483	58.50126	
